HIERARCHY
ROOT Hip
{
	OFFSET 0 1.131 0.0052
	CHANNELS 6 Xposition Yposition Zposition Xrotation Yrotation Zrotation
	JOINT Abdomen
	{
		OFFSET 0 -0.047353 -0.05
		CHANNELS 3 Xrotation Zrotation Yrotation
		JOINT Chest
		{
			OFFSET 0 0.132153 0.007439
			CHANNELS 3 Xrotation Zrotation Yrotation
			JOINT Neck
			{
				OFFSET 0 0.3078 0.006161
				CHANNELS 3 Xrotation Zrotation Yrotation
				JOINT Head_comp
				{
					OFFSET 0 0.0884 0.013
					CHANNELS 3 Xrotation Yrotation Zrotation
					End Site
					{
						OFFSET -0 0.156 0.0624
					}
				}
			}
			JOINT Left_Collar
			{
				OFFSET 0.02282 0.250342 0.017193
				CHANNELS 2 Yrotation Zrotation
				JOINT Left_Shoulder
				{
					OFFSET 0.15421 0 0
					CHANNELS 3 Xrotation Yrotation Zrotation
					JOINT Left_Forearm
					{
						OFFSET 0.265212 0 0
						CHANNELS 2 Yrotation Xrotation
						JOINT Left_Hand
						{
							OFFSET 0.27571 0 0
							CHANNELS 2 Zrotation Yrotation
							JOINT L1ProxPhalanx
							{
								OFFSET 0.014142 0.001733 0.014142
								CHANNELS 3 Yrotation Zrotation Xrotation
								JOINT L1MidPhalanx
								{
									OFFSET 0.04 0 0
									CHANNELS 1 Zrotation
									JOINT L1DistPhalanx
									{
										OFFSET 0.035 0 0
										CHANNELS 1 Zrotation
										End Site
										{
											OFFSET 0.029 -0 -0
										}
									}
								}
							}
							JOINT L2ProxPhalanx
							{
								OFFSET 0.0821037 0.001578 0.0219996
								CHANNELS 2 Yrotation Zrotation
								JOINT L2MidPhalanx
								{
									OFFSET 0.04 0 0
									CHANNELS 1 Zrotation
									JOINT L2DistPhalanx
									{
										OFFSET 0.028 0 0
										CHANNELS 1 Zrotation
										End Site
										{
											OFFSET 0.02 -0 -0
										}
									}
								}
							}
							JOINT L3ProxPhalanx
							{
								OFFSET 0.083 0 0
								CHANNELS 2 Yrotation Zrotation
								JOINT L3MidPhalanx
								{
									OFFSET 0.053 0 0
									CHANNELS 1 Zrotation
									JOINT L3DistPhalanx
									{
										OFFSET 0.03 0 0
										CHANNELS 1 Zrotation
										End Site
										{
											OFFSET 0.023 -0 -0
										}
									}
								}
							}
							JOINT L4ProxPhalanx
							{
								OFFSET 0.077274 -0.000761 -0.0207055
								CHANNELS 2 Yrotation Zrotation
								JOINT L4MidPhalanx
								{
									OFFSET 0.05 0 0
									CHANNELS 1 Zrotation
									JOINT L4DistPhalanx
									{
										OFFSET 0.03 0 0
										CHANNELS 1 Zrotation
										End Site
										{
											OFFSET 0.023 -0 -0
										}
									}
								}
							}
							JOINT L5ProxPhalanx
							{
								OFFSET 0.0675499 -0.001644 -0.039
								CHANNELS 2 Yrotation Zrotation
								JOINT L5MidPhalanx
								{
									OFFSET 0.04 0 0
									CHANNELS 1 Zrotation
									JOINT L5DistPhalanx
									{
										OFFSET 0.021 0 0
										CHANNELS 1 Zrotation
										End Site
										{
											OFFSET 0.022 -0 -0
										}
									}
								}
							}
						}
					}
				}
			}
			JOINT Right_Collar
			{
				OFFSET -0.02282 0.250342 0.017193
				CHANNELS 2 Yrotation Zrotation
				JOINT Right_Shoulder
				{
					OFFSET -0.15421 0 0
					CHANNELS 3 Xrotation Yrotation Zrotation
					JOINT Right_Forearm
					{
						OFFSET -0.265212 0 0
						CHANNELS 2 Yrotation Xrotation
						JOINT Right_Hand
						{
							OFFSET -0.27571 3e-006 0
							CHANNELS 2 Zrotation Yrotation
							JOINT R1ProxPhalanx
							{
								OFFSET -0.014142 0.001733 0.014142
								CHANNELS 3 Yrotation Zrotation Xrotation
								JOINT R1MidPhalanx
								{
									OFFSET -0.04 0 0
									CHANNELS 1 Zrotation
									JOINT R1DistPhalanx
									{
										OFFSET -0.035 0 0
										CHANNELS 1 Zrotation
										End Site
										{
											OFFSET -0.029 -0 -0
										}
									}
								}
							}
							JOINT R2ProxPhalanx
							{
								OFFSET -0.0821037 0.001578 0.0219996
								CHANNELS 2 Yrotation Zrotation
								JOINT R2MidPhalanx
								{
									OFFSET -0.04 0 0
									CHANNELS 1 Zrotation
									JOINT R2DistPhalanx
									{
										OFFSET -0.028 0 0
										CHANNELS 1 Zrotation
										End Site
										{
											OFFSET -0.02 -0 -0
										}
									}
								}
							}
							JOINT R3ProxPhalanx
							{
								OFFSET -0.083 0 0
								CHANNELS 2 Yrotation Zrotation
								JOINT R3MidPhalanx
								{
									OFFSET -0.053 0 0
									CHANNELS 1 Zrotation
									JOINT R3DistPhalanx
									{
										OFFSET -0.03 0 0
										CHANNELS 1 Zrotation
										End Site
										{
											OFFSET -0.023 -0 -0
										}
									}
								}
							}
							JOINT R4ProxPhalanx
							{
								OFFSET -0.077274 -0.000761 -0.0207055
								CHANNELS 2 Yrotation Zrotation
								JOINT R4MidPhalanx
								{
									OFFSET -0.05 0 0
									CHANNELS 1 Zrotation
									JOINT R4DistPhalanx
									{
										OFFSET -0.03 0 0
										CHANNELS 1 Zrotation
										End Site
										{
											OFFSET -0.023 -0 -0
										}
									}
								}
							}
							JOINT R5ProxPhalanx
							{
								OFFSET -0.0675499 -0.001644 -0.039
								CHANNELS 2 Yrotation Zrotation
								JOINT R5MidPhalanx
								{
									OFFSET -0.04 0 0
									CHANNELS 1 Zrotation
									JOINT R5DistPhalanx
									{
										OFFSET -0.021 0 0
										CHANNELS 1 Zrotation
										End Site
										{
											OFFSET -0.022 -0 -0
										}
									}
								}
							}
						}
					}
				}
			}
		}
	}
	JOINT Left_Thigh
	{
		OFFSET 0.1118 -0.1612 -0.0442
		CHANNELS 3 Xrotation Zrotation Yrotation
		JOINT Left_Shin
		{
			OFFSET 0 -0.477856 0
			CHANNELS 1 Xrotation
			JOINT Left_Foot
			{
				OFFSET 0 -0.431952 0
				CHANNELS 2 Xrotation Zrotation
				JOINT Left_Toe
				{
					OFFSET 0 -0.0442 0.119
					CHANNELS 1 Xrotation
					End Site
					{
						OFFSET -0 -0 0.07
					}
				}
			}
		}
	}
	JOINT Right_Thigh
	{
		OFFSET -0.1118 -0.1612 -0.0442
		CHANNELS 3 Xrotation Zrotation Yrotation
		JOINT Right_Shin
		{
			OFFSET 0 -0.477856 0
			CHANNELS 1 Xrotation
			JOINT Right_Foot
			{
				OFFSET 0 -0.431952 0
				CHANNELS 2 Xrotation Zrotation
				JOINT Right_Toe
				{
					OFFSET 0 -0.0442 0.119
					CHANNELS 1 Xrotation
					End Site
					{
						OFFSET -0 -0 0.07
					}
				}
			}
		}
	}
}
MOTION
Frames: 9
Frame Time: 0.009975
-0.103354 -0.0600718 0.0475936 1.09686e-012 4.82644e-008 -5.10932e-006 0 0 0 0 0 0 0 0 0 0 0 0 0 0 -0 0 -0 0 0 0 0 -51.4634 -63.4809 99.3377 -5.75439 -4.49302 7.95993 0.675575 -16.6221 -24.6458 7.46157 1.81719 0.691732 -1.76523 2.43645 2.90146 -6.29669 2.78985 3.1299 5.69411 -58.409 50.667 0 0 -0 0 -0 0 0 0 0 37.9386 28.008 73.698 26.2405 28.4472 13.118 18.2167 29.0248 19.6359 0 22.4358 32.6146 28.1246 -8.63175 30.7051 32.2053 23.7634 -7.83088 26.7354 35.1526 30.0193 0.529815 -0.531874 -0.00491837 0.0240216 -0.553814 0.531902 0 0.541221 -0.531873 -0.00502424 2.41484e-006 -0.5412 0.531902 0 
-0.103354 -0.0600718 0.0475936 1.09686e-012 4.82644e-008 -5.10932e-006 0 0 0 0 0 0 0 0 0 0 0 0 0 0 -0 0 -0 0 0 0 0 -51.4634 -63.4809 99.3377 -5.75439 -4.49302 7.95993 0.675575 -16.6221 -24.6458 7.46157 1.81719 0.691732 -1.76523 2.43645 2.90146 -6.29669 2.78985 3.1299 5.69411 -58.409 50.667 0 0 -0 0 -0 0 0 0 0 37.9386 28.008 73.698 26.2405 28.4472 13.118 18.2167 29.0248 19.6359 0 22.4358 32.6146 28.1246 -8.63175 30.7051 32.2053 23.7634 -7.83088 26.7354 35.1526 30.0193 0.529815 -0.531874 -0.00491837 0.0240216 -0.553814 0.531902 0 0.541221 -0.531873 -0.00502424 2.41484e-006 -0.5412 0.531902 0 
-0.101405 -0.0600594 0.0352554 2.05723e-012 -2.1032e-008 -5.08407e-006 0 -0 0 0 -0 0 0 -0 0 -0.710076 0.291028 -9.06232e-006 -7.23702 -22.9357 -32.0436 -16.8487 -44.3853 -28.7377 0.554987 43.5456 5.58263 -51.5636 -63.2928 99.1677 -5.90061 -4.57056 7.9162 0.522644 -16.739 -24.5976 7.42535 1.64838 0.488273 -1.8464 2.43191 2.72696 -6.46521 2.6859 3.14393 5.54567 -58.2869 50.3137 7.23702 22.9357 -32.0436 16.8487 44.3853 28.7377 0.554987 -43.5456 -5.58263 51.5636 63.2928 99.1677 5.90061 4.57056 -7.9162 -0.522644 16.739 24.5976 -7.42535 -1.64838 -0.488273 1.8464 -2.43191 -2.72696 6.46521 -2.6859 -3.14393 -5.54567 58.2869 -50.3137 -0.247186 -0.654614 0.00283122 0.0239015 0.223268 0.654626 0 -0.235838 -0.654615 0.00270124 0 0.235822 0.654626 0 
-0.10135 -0.0600629 0.0345478 2.06756e-012 -2.11377e-008 -5.10962e-006 0 -0 0 0 -0 0 0 -0 0 -0.711685 0.290712 -2.29797e-010 -7.2729 -23.0508 -31.6985 -17.4788 -42.2942 -30.1535 0.557717 43.7642 5.60931 -51.4634 -63.4809 99.3377 -5.75439 -4.49302 7.95993 0.675575 -16.6221 -24.6458 7.46157 1.81719 0.691732 -1.76523 2.43645 2.90146 -6.29669 2.78985 3.1299 5.69411 -58.409 50.667 7.2729 23.0508 -31.6985 17.4788 42.2942 30.1535 0.557717 -43.7642 -5.60931 51.4634 63.4809 99.3377 5.75439 4.49302 -7.95993 -0.675575 16.6221 24.6458 -7.46157 -1.81719 -0.691732 1.76523 -2.43645 -2.90146 6.29669 -2.78985 -3.1299 -5.69411 58.409 -50.667 -0.291804 -0.658112 0.0033517 0.0240216 0.267763 0.658126 0 -0.280398 -0.658113 0.0032207 0 0.280379 0.658126 0 
-0.10135 -0.060063 0.0345353 5.88777e-013 -2.50351e-008 -5.1096e-006 0 -0 0 0 -0 0 0 -0 0 -0.711662 0.290692 -4.57793e-015 -7.2729 -23.0508 -31.6949 -17.4824 -42.2799 -30.1631 0.557717 43.7642 5.60931 -51.4634 -63.4809 99.3377 -5.75439 -4.49302 7.95993 0.675575 -16.6221 -24.6458 7.46157 1.81719 0.691732 -1.76523 2.43645 2.90146 -6.29669 2.78985 3.1299 5.69411 -58.409 50.667 7.2729 23.0508 -31.6949 17.4824 42.2799 30.1631 0.557717 -43.7642 -5.60931 51.4634 63.4809 99.3377 5.75439 4.49302 -7.95993 -0.675575 16.6221 24.6458 -7.46157 -1.81719 -0.691732 1.76523 -2.43645 -2.90146 6.29669 -2.78985 -3.1299 -5.69411 58.409 -50.667 -0.292591 -0.658116 0.00336076 0.0240216 0.26855 0.65813 0 -0.281185 -0.658116 0.00322976 2.39069e-006 0.281164 0.658129 0 
-0.10135 -0.060063 0.0345352 -1.31312e-012 -2.50765e-008 -5.1096e-006 0 -0 0 0 -0 0 0 -0 0 -0.711661 0.290692 -0 -7.2729 -23.0508 -31.6949 -17.4824 -42.2799 -30.1631 0.557717 43.7642 5.60931 -51.4634 -63.4809 99.3377 -5.75439 -4.49302 7.95993 0.675575 -16.6221 -24.6458 7.46157 1.81719 0.691732 -1.76523 2.43645 2.90146 -6.29669 2.78985 3.1299 5.69411 -58.409 50.667 7.2729 23.0508 -31.6949 17.4824 42.2799 30.1631 0.557717 -43.7642 -5.60931 51.4634 63.4809 99.3377 5.75439 4.49302 -7.95993 -0.675575 16.6221 24.6458 -7.46157 -1.81719 -0.691732 1.76523 -2.43645 -2.90146 6.29669 -2.78985 -3.1299 -5.69411 58.409 -50.667 -0.292599 -0.658116 0.00336086 0.0240216 0.268558 0.65813 0 -0.281195 -0.658117 0.00322988 2.41484e-006 0.281174 0.65813 0 
-0.10135 -0.060063 0.0345352 2.83293e-013 -2.50769e-008 -5.1096e-006 0 -0 0 0 -0 0 0 -0 0 -0.711661 0.290692 -0 -7.2729 -23.0508 -31.6949 -17.4824 -42.2799 -30.1631 0.557717 43.7642 5.60931 -51.4634 -63.4809 99.3377 -5.75439 -4.49302 7.95993 0.675575 -16.6221 -24.6458 7.46157 1.81719 0.691732 -1.76523 2.43645 2.90146 -6.29669 2.78985 3.1299 5.69411 -58.409 50.667 7.2729 23.0508 -31.6949 17.4824 42.2799 30.1631 0.557717 -43.7642 -5.60931 51.4634 63.4809 99.3377 5.75439 4.49302 -7.95993 -0.675575 16.6221 24.6458 -7.46157 -1.81719 -0.691732 1.76523 -2.43645 -2.90146 6.29669 -2.78985 -3.1299 -5.69411 58.409 -50.667 -0.292599 -0.658116 0.00336086 0.0240216 0.268558 0.65813 0 -0.281195 -0.658117 0.00322988 2.83165e-006 0.281174 0.65813 0 
-0.10135 -0.060063 0.0345352 -2.72725e-012 -2.50769e-008 -5.1096e-006 0 -0 0 0 -0 0 0 -0 0 -0.711661 0.290692 -0 -7.2729 -23.0508 -31.6949 -17.4824 -42.2799 -30.1631 0.557717 43.7642 5.60931 -51.4634 -63.4809 99.3377 -5.75439 -4.49302 7.95993 0.675575 -16.6221 -24.6458 7.46157 1.81719 0.691732 -1.76523 2.43645 2.90146 -6.29669 2.78985 3.1299 5.69411 -58.409 50.667 7.2729 23.0508 -31.6949 17.4824 42.2799 30.1631 0.557717 -43.7642 -5.60931 51.4634 63.4809 99.3377 5.75439 4.49302 -7.95993 -0.675575 16.6221 24.6458 -7.46157 -1.81719 -0.691732 1.76523 -2.43645 -2.90146 6.29669 -2.78985 -3.1299 -5.69411 58.409 -50.667 -0.292599 -0.658116 0.00336086 0.0240216 0.268558 0.65813 0 -0.281195 -0.658117 0.00322988 2.41484e-006 0.281174 0.65813 0 
-0.10135 -0.060063 0.0345352 2.19259e-013 -2.50769e-008 -5.1096e-006 0 -0 0 0 -0 0 0 -0 0 -0.711661 0.290692 -0 -7.2729 -23.0508 -31.6949 -17.4824 -42.2799 -30.1631 0.557717 43.7642 5.60931 -51.4634 -63.4809 99.3377 -5.75439 -4.49302 7.95993 0.675575 -16.6221 -24.6458 7.46157 1.81719 0.691732 -1.76523 2.43645 2.90146 -6.29669 2.78985 3.1299 5.69411 -58.409 50.667 7.2729 23.0508 -31.6949 17.4824 42.2799 30.1631 0.557717 -43.7642 -5.60931 51.4634 63.4809 99.3377 5.75439 4.49302 -7.95993 -0.675575 16.6221 24.6458 -7.46157 -1.81719 -0.691732 1.76523 -2.43645 -2.90146 6.29669 -2.78985 -3.1299 -5.69411 58.409 -50.667 -0.292599 -0.658116 0.00336086 0.0240216 0.268558 0.65813 0 -0.281194 -0.658117 0.00322986 5.66329e-008 0.281175 0.65813 0 
